<?xml version="1.0" encoding="UTF-8"?>
<svg xmlns="http://www.w3.org/2000/svg" viewBox="0 0 800 400">
    <!-- Background -->
    <rect width="800" height="400" fill="#f8f9fa" rx="0" ry="0" />
    
    <!-- Server Rack -->
    <rect x="550" y="100" width="150" height="200" rx="15" ry="15" fill="#0a192f" />
    
    <!-- Server Units -->
    <rect x="570" y="130" width="110" height="30" fill="#333" rx="3" ry="3" />
    <rect x="570" y="170" width="110" height="30" fill="#333" rx="3" ry="3" />
    <rect x="570" y="210" width="110" height="30" fill="#333" rx="3" ry="3" />
    <rect x="570" y="250" width="110" height="30" fill="#333" rx="3" ry="3" />
    
    <!-- Network Switch -->
    <rect x="570" y="290" width="110" height="20" fill="#00c8ff" rx="3" ry="3" />
    <text x="625" y="305" font-family="Arial" font-size="12" fill="white" text-anchor="middle">Network Switch</text>
    
    <!-- Software Platform -->
    <rect x="250" y="120" width="220" height="180" rx="10" ry="10" fill="#0066cc" />
    <text x="360" y="180" font-family="Arial" font-size="18" fill="white" text-anchor="middle" font-weight="bold">Software-Defined NI Platform</text>
    
    <!-- Software Components - with taller boxes and line breaks for text -->
    <rect x="270" y="200" width="80" height="50" fill="white" rx="5" ry="5" />
    <text x="310" y="223" font-family="Arial" font-size="10" fill="#0066cc" text-anchor="middle">Signal</text>
    <text x="310" y="238" font-family="Arial" font-size="10" fill="#0066cc" text-anchor="middle">Processing</text>
    
    <rect x="270" y="260" width="80" height="50" fill="white" rx="5" ry="5" />
    <text x="310" y="283" font-family="Arial" font-size="10" fill="#0066cc" text-anchor="middle">NI</text>
    <text x="310" y="298" font-family="Arial" font-size="10" fill="#0066cc" text-anchor="middle">Algorithms</text>
    
    <rect x="370" y="200" width="80" height="50" fill="white" rx="5" ry="5" />
    <text x="410" y="223" font-family="Arial" font-size="10" fill="#0066cc" text-anchor="middle">Optimization</text>
    <text x="410" y="238" font-family="Arial" font-size="10" fill="#0066cc" text-anchor="middle">Engine</text>
    
    <rect x="370" y="260" width="80" height="50" fill="white" rx="5" ry="5" />
    <text x="410" y="283" font-family="Arial" font-size="10" fill="#0066cc" text-anchor="middle">Monitoring</text>
    <text x="410" y="298" font-family="Arial" font-size="10" fill="#0066cc" text-anchor="middle">Dashboard</text>
    
    <!-- Connection Lines Between Components -->
    <line x1="350" y1="225" x2="370" y2="225" stroke="#fff" stroke-width="1" />
    <line x1="350" y1="285" x2="370" y2="285" stroke="#fff" stroke-width="1" />
    <line x1="310" y1="250" x2="310" y2="260" stroke="#fff" stroke-width="1" />
    <line x1="410" y1="250" x2="410" y2="260" stroke="#fff" stroke-width="1" />
    
    <!-- Existing Hardware - Optical Transceivers -->
    <rect x="120" y="130" width="60" height="30" fill="#444" rx="3" ry="3" />
    <rect x="120" y="170" width="60" height="30" fill="#444" rx="3" ry="3" />
    <rect x="120" y="210" width="60" height="30" fill="#444" rx="3" ry="3" />
    <rect x="120" y="250" width="60" height="30" fill="#444" rx="3" ry="3" />
    <rect x="120" y="290" width="60" height="30" fill="#444" rx="3" ry="3" />
    <rect x="120" y="330" width="60" height="30" fill="#444" rx="3" ry="3" />
    
    <!-- Connection Lines to Software Platform -->
    <line x1="180" y1="145" x2="250" y2="180" stroke="#00c8ff" stroke-width="2" />
    <line x1="180" y1="185" x2="250" y2="195" stroke="#00c8ff" stroke-width="2" />
    <line x1="180" y1="225" x2="250" y2="210" stroke="#00c8ff" stroke-width="2" />
    <line x1="180" y1="265" x2="250" y2="230" stroke="#00c8ff" stroke-width="2" />
    <line x1="180" y1="305" x2="250" y2="250" stroke="#00c8ff" stroke-width="2" />
    <line x1="180" y1="345" x2="250" y2="270" stroke="#00c8ff" stroke-width="2" />
    
    <!-- Connection Lines from Software to Server -->
    <line x1="470" y1="185" x2="570" y2="145" stroke="#00c8ff" stroke-width="2" />
    <line x1="470" y1="205" x2="570" y2="185" stroke="#00c8ff" stroke-width="2" />
    <line x1="470" y1="225" x2="570" y2="225" stroke="#00c8ff" stroke-width="2" />
    <line x1="470" y1="245" x2="570" y2="265" stroke="#00c8ff" stroke-width="2" />
    
    <!-- Data Flow Dots -->
    <circle cx="220" cy="180" r="3" fill="#fff">
        <animate attributeName="cx" from="180" to="250" dur="2s" repeatCount="indefinite" />
    </circle>
    <circle cx="220" cy="220" r="3" fill="#fff">
        <animate attributeName="cx" from="180" to="250" dur="3s" repeatCount="indefinite" />
    </circle>
    <circle cx="510" cy="205" r="3" fill="#fff">
        <animate attributeName="cx" from="470" to="570" dur="2s" repeatCount="indefinite" />
    </circle>
    <circle cx="510" cy="225" r="3" fill="#fff">
        <animate attributeName="cx" from="470" to="570" dur="2.5s" repeatCount="indefinite" />
    </circle>
    
    <!-- Labels -->
    <text x="150" y="380" font-family="Arial" font-size="16" fill="#0a192f" text-anchor="middle">Existing Optical Transceivers</text>
</svg>
